<svg id="_3" data-name="3" xmlns="http://www.w3.org/2000/svg" width="60" height="60" viewBox="0 0 60 60">
  <metadata><?xpacket begin="﻿" id="W5M0MpCehiHzreSzNTczkc9d"?>
<x:xmpmeta xmlns:x="adobe:ns:meta/" x:xmptk="Adobe XMP Core 5.6-c140 79.160451, 2017/05/06-01:08:21        ">
   <rdf:RDF xmlns:rdf="http://www.w3.org/1999/02/22-rdf-syntax-ns#">
      <rdf:Description rdf:about=""/>
   </rdf:RDF>
</x:xmpmeta>
                                                                                                    
                                                                                                    
                                                                                                    
                                                                                                    
                                                                                                    
                                                                                                    
                                                                                                    
                                                                                                    
                                                                                                    
                                                                                                    
                                                                                                    
                                                                                                    
                                                                                                    
                                                                                                    
                                                                                                    
                                                                                                    
                                                                                                    
                                                                                                    
                                                                                                    
                                                                                                    
                           
<?xpacket end="w"?></metadata>
<defs>
    <style>
      .cls-1, .cls-2, .cls-4 {
        fill: #00d8a4;
      }

      .cls-1 {
        opacity: 0;
      }

      .cls-2, .cls-3, .cls-4 {
        fill-rule: evenodd;
      }

      .cls-3 {
        fill: none;
      }

      .cls-3, .cls-4 {
        stroke: #00d8a4;
        stroke-width: 2px;
      }
    </style>
  </defs>
  <rect id="矩形_8" data-name="矩形 8" class="cls-1" x="-0.015" width="60" height="60"/>
  <g id="组_2" data-name="组 2">
    <path id="矩形_7" data-name="矩形 7" class="cls-2" d="M864.063,510.5h2.306v14.875h-2.306V510.5Z" transform="translate(-853.015 -478)"/>
    <path id="矩形_7_拷贝" data-name="矩形 7 拷贝" class="cls-2" d="M865.983,521.68l1.153,1.982L854.153,531.1,853,529.117Z" transform="translate(-853.015 -478)"/>
    <path id="矩形_7_拷贝_2" data-name="矩形 7 拷贝 2" class="cls-2" d="M865.183,521.93l-1.129,1.929,12.717,7.24,1.13-1.929Z" transform="translate(-853.015 -478)"/>
    <path id="多边形_3" data-name="多边形 3" class="cls-3" d="M878.414,530.711l-12.7,7.275-12.7-7.275V516.162l12.7-7.275,12.7,7.275v14.549Z" transform="translate(-853.015 -478)"/>
  </g>
  <g id="组_2_拷贝" data-name="组 2 拷贝">
    <path id="矩形_7-2" data-name="矩形 7" class="cls-2" d="M898.658,510.5h2.306v14.875h-2.306V510.5Z" transform="translate(-853.015 -478)"/>
    <path id="矩形_7_拷贝-2" data-name="矩形 7 拷贝" class="cls-2" d="M900.577,521.68l1.153,1.982L888.748,531.1l-1.153-1.982Z" transform="translate(-853.015 -478)"/>
    <path id="矩形_7_拷贝_2-2" data-name="矩形 7 拷贝 2" class="cls-4" d="M899.778,521.93l-1.13,1.929,12.718,7.24,1.129-1.929Z" transform="translate(-853.015 -478)"/>
    <path id="多边形_3-2" data-name="多边形 3" class="cls-3" d="M913.009,530.711l-12.7,7.275-12.7-7.275V516.162l12.7-7.275,12.7,7.275v14.549Z" transform="translate(-853.015 -478)"/>
  </g>
  <g id="组_2_拷贝_2" data-name="组 2 拷贝 2">
    <path id="矩形_7-3" data-name="矩形 7" class="cls-2" d="M881.36,479.609h2.307v14.875H881.36V479.609Z" transform="translate(-853.015 -478)"/>
    <path id="矩形_7_拷贝-3" data-name="矩形 7 拷贝" class="cls-2" d="M883.28,490.786l1.153,1.982-12.983,7.437-1.153-1.982Z" transform="translate(-853.015 -478)"/>
    <path id="矩形_7_拷贝_2-3" data-name="矩形 7 拷贝 2" class="cls-2" d="M882.481,491.036l-1.13,1.93,12.718,7.239,1.129-1.929Z" transform="translate(-853.015 -478)"/>
    <path id="多边形_3-3" data-name="多边形 3" class="cls-3" d="M895.712,499.817l-12.7,7.275-12.7-7.275V485.268l12.7-7.275,12.7,7.275v14.549Z" transform="translate(-853.015 -478)"/>
  </g>
  <g id="组_2_拷贝_3" data-name="组 2 拷贝 3">
    <path id="矩形_7-4" data-name="矩形 7" class="cls-2" d="M880.892,511.468h2.27v14.625h-2.27V511.468Z" transform="translate(-853.015 -478)"/>
    <path id="矩形_7_拷贝-4" data-name="矩形 7 拷贝" class="cls-2" d="M882.793,515.1l1.152-1.947-12.965-7.31-1.151,1.948Z" transform="translate(-853.015 -478)"/>
    <path id="矩形_7_拷贝_2-4" data-name="矩形 7 拷贝 2" class="cls-2" d="M882,514.854l-1.128-1.9,12.7-7.115,1.128,1.9Z" transform="translate(-853.015 -478)"/>
    <path id="多边形_3-4" data-name="多边形 3" class="cls-3" d="M895.207,506.224l-12.68-7.149-12.681,7.149v14.3l12.681,7.15,12.68-7.15v-14.3Z" transform="translate(-853.015 -478)"/>
  </g>
</svg>
