<?xml version="1.0" encoding="UTF-8"?>
<svg width="96px" height="78px" viewBox="0 0 96 78" version="1.1" xmlns="http://www.w3.org/2000/svg" xmlns:xlink="http://www.w3.org/1999/xlink">
    <!-- Generator: Sketch 50.2 (55047) - http://www.bohemiancoding.com/sketch -->
    <title>储存</title>
    <desc>Created with Sketch.</desc>
    <defs></defs>
    <g id="Page-1" stroke="none" stroke-width="1" fill="none" fill-rule="evenodd">
        <g id="Artboard" transform="translate(-622.000000, -248.000000)">
            <g id="储存" transform="translate(620.000000, 237.000000)">
                <g id="inbox" transform="translate(5.000000, 14.000000)" stroke="#7C91A6" stroke-linecap="round" stroke-linejoin="round" stroke-width="6">
                    <polyline id="Shape" points="90 40.7142857 63 40.7142857 54 54.6428571 36 54.6428571 27 40.7142857 0 40.7142857"></polyline>
                    <path d="M15.615,5.33906445 L0,40.3794652 L0,62.8125003 C0,67.7682695 4.02943725,71.7857143 9,71.7857143 L81,71.7857143 C85.9705627,71.7857143 90,67.7682695 90,62.8125003 L90,40.3794652 L74.385,5.33906445 C72.941988,2.09105431 69.7129938,-0.00242492724 66.15,2.1080419e-06 L23.85,2.1080419e-06 C20.2870062,-0.00242492724 17.058012,2.09105431 15.615,5.33906445 Z" id="Shape"></path>
                </g>
                <rect id="Rectangle-2-Copy" fill="#FFFFFF" opacity="0" x="0" y="0" width="100" height="100"></rect>
            </g>
        </g>
    </g>
</svg>